<svg width="37" height="37" viewBox="0 0 37 37" fill="none" xmlns="http://www.w3.org/2000/svg">
<path d="M13.38 11.6215C14.6813 12.7196 16.7813 13.8643 18.604 14.5785C17.0361 13.4407 15.4759 12.1582 13.9186 10.4797C15.2149 7.71541 16.7628 3.89736 18.3585 0C20.9603 6.64774 25.8096 16.6521 32.3059 28.5219C30.541 27.5528 28.9419 27.0011 27.2909 26.5747C27.8381 26.887 29.1315 27.5929 29.9614 28.1602C31.2723 29.0564 32.4855 30.0364 33.6264 30.9749C34.6448 32.8473 35.6756 34.7585 36.7175 36.7034C31.5358 33.7031 26.5002 31.2727 22.3747 30.522C23.7253 23.03 18.4391 18.6098 15.4357 23.3786C14.2792 25.2147 13.9665 28.2399 14.5149 30.4878C9.29893 31.4922 4.19548 34.3038 0 36.7035C4.8868 27.8484 9.82753 18.8719 13.38 11.6215Z" fill="#CDD6F4"/>
</svg>
