<svg width="260" height="200" viewBox="0 0 260 200" fill="none" xmlns="http://www.w3.org/2000/svg">
<path d="M9.11729 152.972C12.7246 163.081 21.5442 166.555 25.5031 167.028C29.5628 168.197 33.914 170.971 18.8411 172.71L26.47 178.266H111.02L144.207 142.339L169.686 100.843L163.647 93.5961C163.164 86.3496 155.917 88.4081 149.521 83.6925C144.404 79.92 147.389 76.0013 149.521 74.5135C148.513 74.9161 146.062 76.301 144.323 78.6199C142.583 80.9388 142.632 84.1756 144.323 87.0742C147.946 91.9053 156.284 101.694 149.521 107.344C137.584 114.922 138.229 115.621 135.96 111.361C135.223 107.197 137.165 103.883 136.637 97.3284C136.215 92.0844 125.385 89.1966 120.022 88.4081C123.078 89.9698 127.982 95.8335 123.147 106.795C117.104 120.497 120.548 121.396 123.754 128.803C126.318 134.728 122.711 140.296 120.587 142.339C116.091 145.495 107.882 149.382 111.02 139.689C114.159 129.996 110.231 125.223 107.875 124.047C96.0587 114.393 91.9967 119.292 88.214 112.193C84.4313 105.094 87.3886 93.9478 89.34 89.2622C78.6834 99.3155 74.9438 109.086 74.406 112.715C71.787 130.061 83.0861 131.787 84.7483 140.472C85.3404 143.566 77.9 161.501 61.9007 144.899C50.2933 132.855 55.4348 121.912 59.6824 107.344C60.2068 105.545 60.4254 100.112 57.1046 92.7667C53.7839 85.4215 41.2332 78.2853 35.373 75.6353C40.7786 79.2871 51.3427 88.9098 50.3547 98.1863C49.3667 107.463 42.6883 115.336 39.4726 118.112C34.9693 122.183 26.0642 132.184 26.47 139.624C26.8758 147.064 37.9546 150.974 43.4432 151.999C24.4584 152.545 23.1545 147.315 20.8849 143.056C17.6696 137.022 26.381 125.544 23.3549 119.865C18.8157 111.346 5.89697 112.609 0 114.991C6.58378 114.825 18.5765 117.854 13.8769 131.295C9.1774 144.737 8.20164 147.08 9.11729 152.972Z" fill="#A27DB6"/>
<path d="M96.201 140.707C104.97 173.86 143.568 139.166 133.733 120.708C139.318 122.824 151.405 124.206 155.076 112.805L150.728 134.303C131.807 154.352 84.1565 192.082 44.9284 182.614C65.9438 178.507 34.542 173.676 29.2277 160.494C39.373 174.159 80.6094 175.447 49.659 160.494C83.65 168.632 94.8499 150.694 96.201 140.707Z" fill="#B395D2"/>
<path fill-rule="evenodd" clip-rule="evenodd" d="M193.408 60.7012C189.175 62.9699 181.984 64.7281 176.936 64.7281C172.856 64.7281 172.605 64.8584 170.337 68.1668C166.184 74.2213 163.181 81.0202 158.099 95.8785C152.84 111.252 148.071 122.074 143.248 129.575C130.145 149.954 112.003 163.962 89.6158 170.985C73.132 176.156 39.1489 176.199 22.9111 171.069C19.4845 169.987 14.9932 168.87 12.93 168.588C9.51641 168.119 9.17902 168.223 9.17902 169.738C9.17902 172.22 14.566 176.382 24.3788 181.481C42.3303 190.808 59.1548 195.738 79.0126 197.49C106.3 199.897 130.648 195.083 155.841 182.301C182.971 168.536 205.221 149.516 220.213 127.274C226.897 117.358 236.537 97.0841 236.537 92.9431C236.537 92.5968 234.989 91.6291 233.098 90.7925C228.246 88.646 224.769 84.3205 222.818 78.0071C221.908 75.0595 221.164 72.1411 221.164 71.5205C221.164 70.8999 220.986 70.3918 220.77 70.3918C220.554 70.3918 217.368 72.0529 213.691 74.0837C206.349 78.1373 203.878 80.5695 202.44 85.1579C201.917 86.8271 201.273 88.1807 201.01 88.167C200.134 88.1208 195.335 81.2572 194.081 78.2563C191.732 72.6338 192.819 66.9418 197.244 61.694C199.186 59.3913 199.275 59.0644 197.962 59.0644C197.137 59.0644 195.088 59.8007 193.408 60.7012ZM174.236 111.266C172.213 120.166 168.515 128.527 161.335 139.1C155.124 148.245 141.467 159.358 135.444 162.216C134.587 162.381 136.474 161.727 135.444 162.216L130.14 164.295C130.14 164.295 136.011 158.197 138.736 155.607C149.175 145.685 160.373 129.217 167.385 113.473C169.515 108.691 173.683 100.91 174.502 100.329C174.502 100.329 175.449 107.625 174.236 111.266Z" fill="#CDD6F4"/>
<path fill-rule="evenodd" clip-rule="evenodd" d="M245.346 0.316202C241.154 1.17951 239.534 2.27342 234.798 7.44034C229.091 13.6664 223.253 25.9 220.295 37.8318C218.724 44.1663 217.707 46.8711 216.929 46.7724C216.316 46.6955 213.63 45.7028 210.959 44.5668C207.278 43.0004 204.69 42.4971 200.248 42.4825C192.907 42.4583 187.701 44.3459 181.352 49.334C175.776 53.7145 169.147 56.9185 165.041 57.2179L162.099 57.4315L164.151 59.5756C166.723 62.2634 169.519 62.9431 178.197 62.99C184.296 63.0224 185.713 62.7303 190.627 60.4316C195.816 58.0035 202.464 56.9153 202.464 58.4938C202.464 58.8555 201.338 60.2213 199.962 61.528C193.255 67.9005 192.621 75.5157 198.193 82.8203L200.283 85.5607L201.468 83.2281C203.502 79.223 207.526 75.6274 212.792 73.1103C215.58 71.7777 218.444 69.7986 219.156 68.712C219.868 67.6254 220.711 66.7362 221.029 66.7362C221.347 66.7362 222.214 69.5583 222.957 73.0067C224.95 82.2636 226.971 85.7913 231.901 88.6191C235.431 90.6435 236.907 90.9954 241.908 91.0019C245.134 91.006 247.774 90.7017 247.774 90.3255C247.774 89.9493 247.085 89.0188 246.243 88.2566C245.261 87.3682 244.515 85.2184 244.163 82.2652C242.392 67.4004 239.09 61.0652 229.947 54.9864L224.138 51.1245L224.717 44.1646C225.989 28.8848 232.691 16.5322 243.664 9.23979C248.172 6.24449 251.26 6.17572 253.888 9.01162C255.63 10.8912 256.132 11.0457 257.895 10.2431C259.003 9.73819 259.91 8.93475 259.91 8.45819C259.91 7.06006 257.772 3.32768 256.149 1.89234C254.324 0.27656 249.18 -0.473481 245.346 0.316202Z" fill="#CDD6F4"/>
</svg>
