<svg width="26" height="37" viewBox="0 0 26 37" fill="none" xmlns="http://www.w3.org/2000/svg">
<path d="M22.4538 12.677C23.6512 11.8086 24.543 10.5835 25.0015 9.17717C25.46 7.77087 25.4616 6.25553 25.0061 4.84826C24.5505 3.44099 23.6613 2.21401 22.4657 1.34309C21.2701 0.472178 19.8296 0.00202861 18.3504 0H7.00788C5.52872 0.00202861 4.08817 0.472178 2.89259 1.34309C1.69701 2.21401 0.807765 3.44099 0.352255 4.84826C-0.103256 6.25553 -0.101659 7.77087 0.356819 9.17717C0.815297 10.5835 1.70713 11.8086 2.90454 12.677C2.00556 13.3244 1.27338 14.1763 0.768372 15.1624C0.263364 16.1484 0 17.2404 0 18.3483C0 19.4561 0.263364 20.5481 0.768372 21.5341C1.27338 22.5202 2.00556 23.3721 2.90454 24.0195C1.93214 24.7222 1.15649 25.6629 0.651916 26.7513C0.147338 27.8398 -0.0692615 29.0396 0.0228712 30.2358C0.115004 31.4319 0.512782 32.5844 1.17809 33.5828C1.8434 34.5811 2.75394 35.3919 3.82248 35.9374C4.89102 36.4829 6.08174 36.7449 7.28056 36.6982C8.47937 36.6515 9.64611 36.2977 10.669 35.6707C11.6918 35.0438 12.5366 34.1646 13.1222 33.1175C13.7078 32.0705 14.0148 30.8905 14.0136 29.6908V23.836C14.7407 24.4496 15.5853 24.9086 16.4956 25.1851C17.406 25.4615 18.3632 25.5497 19.3087 25.4441C20.2543 25.3385 21.1684 25.0415 21.9954 24.571C22.8224 24.1006 23.5449 23.4666 24.1188 22.7078C24.6928 21.9489 25.1061 21.0812 25.3337 20.1574C25.5613 19.2335 25.5983 18.273 25.4425 17.3345C25.2867 16.3959 24.9413 15.4988 24.4275 14.6981C23.9137 13.8974 23.2421 13.2097 22.4538 12.677ZM22.6873 7.0057C22.6829 8.15455 22.2246 9.2551 21.4122 10.0675C20.5998 10.8798 19.4993 11.3382 18.3504 11.3426H14.0136V2.66884H18.3504C19.4993 2.67323 20.5998 3.13156 21.4122 3.94393C22.2246 4.7563 22.6829 5.85684 22.6873 7.0057ZM18.3504 22.6851C17.2002 22.6851 16.0971 22.2282 15.2838 21.4149C14.4705 20.6016 14.0136 19.4985 14.0136 18.3483C14.0136 17.198 14.4705 16.0949 15.2838 15.2816C16.0971 14.4683 17.2002 14.0114 18.3504 14.0114C19.5006 14.0114 20.6037 14.4683 21.4171 15.2816C22.2304 16.0949 22.6873 17.198 22.6873 18.3483C22.6873 19.4985 22.2304 20.6016 21.4171 21.4149C20.6037 22.2282 19.5006 22.6851 18.3504 22.6851Z" fill="#CDD6F4"/>
</svg>
