<svg width="244" height="137" viewBox="0 0 244 137" fill="none" xmlns="http://www.w3.org/2000/svg">
<path d="M196.159 55.0209V65.5942H185.586V55.0209H196.159Z" fill="#CDD6F4"/>
<path d="M206.726 55.0209V76.1676H201.439V65.5942H196.152V55.0209H206.726Z" fill="#CDD6F4"/>
<path d="M212.006 55.0209V65.5942H206.719V55.0209H212.006Z" fill="#CDD6F4"/>
<path d="M222.572 65.5942V76.1676H217.285V65.5942H222.572ZM227.859 55.0209V65.5766H222.572V55.0209H227.859Z" fill="#CDD6F4"/>
<path d="M238.425 55.0209V65.5942H227.852V55.0209H238.425Z" fill="#CDD6F4"/>
<path d="M243.705 55.0209V76.1676H238.418V55.0209H243.705Z" fill="#CDD6F4"/>
<path d="M196.159 88.5942V99.1676H190.873V88.5942H196.159Z" fill="#CDD6F4"/>
<path d="M201.439 78.0209V88.5942H196.152V78.0209H201.439Z" fill="#CDD6F4"/>
<path d="M222.572 78.0209V88.5766H227.859V99.1676H222.572V88.5942H217.285V78.0209H222.572Z" fill="#CDD6F4"/>
<path d="M238.425 88.5942V99.1676H227.852V88.5942H238.425Z" fill="#CDD6F4"/>
<path d="M243.705 78.0209V99.1676H238.418V78.0209H243.705Z" fill="#CDD6F4"/>
<path d="M196.159 101.021V111.594H185.586V101.021H196.159Z" fill="#CDD6F4"/>
<path d="M206.726 101.021V111.594H196.152V101.021H206.726Z" fill="#CDD6F4"/>
<path d="M212.006 101.021V111.594H206.719V101.021H212.006Z" fill="#CDD6F4"/>
<path d="M227.859 111.594V122.168H222.572V111.594H227.859Z" fill="#CDD6F4"/>
<path d="M238.425 111.594V122.168H227.852V111.594H238.425Z" fill="#CDD6F4"/>
<path d="M243.705 101.021V111.594H238.418V101.021H243.705Z" fill="#CDD6F4"/>
<path d="M6.28577 105.464C8.7728 112.434 14.8533 114.828 17.5827 115.154C20.3816 115.961 23.3814 117.873 12.9897 119.072L18.2493 122.902H76.5412L99.4211 98.1334L116.987 69.5243L112.824 64.5283C112.491 59.5323 107.495 60.9515 103.085 57.7004C99.557 55.0995 101.615 52.3978 103.085 51.3721C102.39 51.6496 100.7 52.6044 99.5009 54.2032C98.3019 55.8019 98.3352 58.0335 99.5009 60.0319C101.999 63.3626 107.748 70.111 103.085 74.0064C94.855 79.2313 95.3 79.7129 93.7352 76.7763C93.2275 73.9049 94.5659 71.6207 94.2024 67.1015C93.9115 63.4861 86.4446 61.4951 82.7475 60.9515C84.8545 62.0282 88.2353 66.0708 84.902 73.6281C80.7354 83.0748 83.1102 83.6946 85.32 88.801C87.0878 92.8862 84.6012 96.7247 83.137 98.1334C80.0368 100.309 74.3775 102.989 76.5412 96.3065C78.7049 89.6238 75.9971 86.3327 74.3728 85.5225C66.2261 78.8665 63.4257 82.2439 60.8178 77.3496C58.2098 72.4553 60.2487 64.7708 61.5941 61.5403C54.247 68.4714 51.6688 75.2075 51.298 77.7092C49.4924 89.6682 57.2824 90.8587 58.4283 96.8462C58.8366 98.9793 53.7069 111.344 42.6764 99.8982C34.6739 91.5944 38.2186 84.0501 41.1471 74.0064C41.5086 72.7664 41.6593 69.0205 39.3699 63.9565C37.0804 58.8925 28.4276 53.9725 24.3874 52.1455C28.1141 54.6632 35.3974 61.2974 34.7162 67.6929C34.0351 74.0885 29.4308 79.5162 27.2138 81.4307C24.109 84.2371 17.9695 91.1322 18.2493 96.2616C18.5291 101.391 26.1672 104.087 29.9512 104.794C16.8625 105.17 15.9635 101.564 14.3988 98.6276C12.182 94.4674 18.188 86.5542 16.1017 82.6388C12.9722 76.7656 4.06557 77.6363 0 79.279C4.53908 79.1645 12.8072 81.2522 9.56722 90.5194C6.32721 99.7865 5.65449 101.402 6.28577 105.464Z" fill="#A27DB6"/>
<path d="M66.3242 97.0084C72.3699 119.865 98.9809 95.9456 92.2003 83.2204C96.0504 84.6793 104.383 85.6321 106.915 77.7717L103.917 92.5932C90.872 106.416 58.0203 132.428 30.9751 125.9C45.4639 123.069 23.8144 119.738 20.1505 110.65C27.145 120.071 55.5748 120.959 34.2366 110.65C57.6711 116.261 65.3927 103.893 66.3242 97.0084Z" fill="#B395D2"/>
<path fill-rule="evenodd" clip-rule="evenodd" d="M133.343 41.8494C130.424 43.4136 125.466 44.6257 121.987 44.6257C119.173 44.6257 119.001 44.7155 117.436 46.9964C114.573 51.1706 112.503 55.858 108.999 66.1019C105.373 76.701 102.086 84.1619 98.7605 89.3335C89.7271 103.383 77.2191 113.041 61.7847 117.883C50.4202 121.448 26.9911 121.477 15.7962 117.941C13.4338 117.195 10.3373 116.425 8.91489 116.23C6.56144 115.907 6.32882 115.978 6.32882 117.023C6.32882 118.735 10.0428 121.604 16.8081 125.119C29.1845 131.549 40.7838 134.948 54.4744 136.156C73.2876 137.815 90.0735 134.497 107.442 125.684C126.147 116.194 141.487 103.082 151.823 87.747C156.431 80.9104 163.077 66.933 163.077 64.0781C163.077 63.8393 162.01 63.1722 160.706 62.5954C157.361 61.1155 154.964 58.1334 153.619 53.7807C152.991 51.7485 152.478 49.7365 152.478 49.3086C152.478 48.8808 152.356 48.5305 152.207 48.5305C152.058 48.5305 149.861 49.6757 147.326 51.0758C142.264 53.8705 140.561 55.5473 139.57 58.7107C139.209 59.8615 138.765 60.7947 138.584 60.7852C137.98 60.7535 134.671 56.0215 133.807 53.9525C132.187 50.0762 132.937 46.1519 135.987 42.5339C137.326 40.9463 137.387 40.721 136.482 40.721C135.914 40.721 134.501 41.2286 133.343 41.8494ZM120.125 76.7106C118.73 82.8467 116.18 88.6111 111.23 95.9002C106.948 102.205 97.5327 109.867 93.3803 111.837C94.0904 111.5 92.7896 111.951 93.3803 111.837L89.7232 113.27C89.7232 113.27 93.7708 109.066 95.6495 107.281C102.847 100.44 110.567 89.0863 115.401 78.2322C116.87 74.9355 119.744 69.571 120.308 69.1699C120.308 69.1699 120.961 74.2004 120.125 76.7106Z" fill="#CDD6F4"/>
<path fill-rule="evenodd" clip-rule="evenodd" d="M169.148 0.218C166.257 0.813196 165.141 1.56737 161.876 5.12962C157.941 9.42206 153.916 17.8563 151.877 26.0825C150.794 30.4497 150.092 32.3145 149.556 32.2465C149.133 32.1935 147.281 31.509 145.44 30.7259C142.902 29.6459 141.118 29.2989 138.055 29.2889C132.994 29.2722 129.405 30.5736 125.028 34.0125C121.184 37.0326 116.613 39.2416 113.782 39.448L111.754 39.5952L113.169 41.0734C114.942 42.9265 116.87 43.3951 122.853 43.4275C127.057 43.4498 128.035 43.2484 131.422 41.6636C135 39.9896 139.583 39.2393 139.583 40.3276C139.583 40.577 138.807 41.5186 137.859 42.4195C133.234 46.8129 132.797 52.0631 136.639 57.0991L138.08 58.9885L138.897 57.3803C140.299 54.619 143.074 52.1401 146.704 50.4047C148.626 49.486 150.6 48.1215 151.091 47.3724C151.582 46.6232 152.163 46.0102 152.383 46.0102C152.602 46.0102 153.2 47.9559 153.712 50.3333C155.086 56.7153 156.479 59.1474 159.878 61.097C162.312 62.4927 163.329 62.7354 166.777 62.7398C169.002 62.7426 170.821 62.5329 170.821 62.2735C170.821 62.0141 170.347 61.3726 169.766 60.8471C169.089 60.2346 168.575 58.7525 168.332 56.7164C167.111 46.4681 164.835 42.1004 158.531 37.9095L154.526 35.247L154.926 30.4486C155.803 19.9141 160.423 11.3979 167.988 6.37022C171.096 4.30517 173.225 4.25775 175.037 6.21291C176.238 7.50874 176.584 7.61528 177.799 7.06192C178.563 6.71384 179.189 6.15992 179.189 5.83137C179.189 4.86745 177.715 2.29422 176.596 1.30464C175.338 0.19067 171.791 -0.326434 169.148 0.218Z" fill="#CDD6F4"/>
</svg>
