<svg width="31" height="31" viewBox="0 0 31 31" fill="none" xmlns="http://www.w3.org/2000/svg">
<path d="M15.524 0C13.4917 0 11.4792 0.410242 9.60156 1.2073C7.7239 2.00436 6.01782 3.17263 4.58072 4.64541C1.67837 7.61981 0.0478516 11.654 0.0478516 15.8604C0.0478516 22.8707 4.48952 28.8184 10.6336 30.9278C11.4074 31.0547 11.655 30.563 11.655 30.1348V27.4544C7.36809 28.406 6.45499 25.3291 6.45499 25.3291C5.74309 23.4893 4.73714 22.9976 4.73714 22.9976C3.3288 22.0143 4.84547 22.046 4.84547 22.046C6.39309 22.157 7.21333 23.6796 7.21333 23.6796C8.55976 26.0904 10.8348 25.3767 11.7169 24.996C11.8562 23.9651 12.2586 23.2672 12.6919 22.8707C9.25619 22.4742 5.65023 21.1102 5.65023 15.0674C5.65023 13.3069 6.23833 11.8953 7.24428 10.7692C7.08952 10.3727 6.54785 8.72323 7.39904 6.58207C7.39904 6.58207 8.69904 6.15384 11.655 8.19984C12.8776 7.85091 14.2086 7.67644 15.524 7.67644C16.8395 7.67644 18.1705 7.85091 19.3931 8.19984C22.349 6.15384 23.649 6.58207 23.649 6.58207C24.5002 8.72323 23.9586 10.3727 23.8038 10.7692C24.8098 11.8953 25.3979 13.3069 25.3979 15.0674C25.3979 21.1261 21.7764 22.4583 18.3252 22.8549C18.8824 23.3465 19.3931 24.314 19.3931 25.789V30.1348C19.3931 30.563 19.6407 31.0706 20.43 30.9278C26.574 28.8025 31.0002 22.8707 31.0002 15.8604C31.0002 13.7776 30.5999 11.7152 29.8222 9.7909C29.0444 7.86662 27.9045 6.11818 26.4674 4.64541C25.0303 3.17263 23.3242 2.00436 21.4465 1.2073C19.5689 0.410242 17.5564 0 15.524 0Z" fill="#CDD6F4"/>
</svg>
