<svg width="31" height="31" viewBox="0 0 31 31" fill="none" xmlns="http://www.w3.org/2000/svg">
<path d="M20.4286 15.4762C20.4286 16.4557 20.1381 17.4132 19.5939 18.2276C19.0498 19.042 18.2763 19.6768 17.3714 20.0516C16.4665 20.4264 15.4707 20.5245 14.51 20.3334C13.5494 20.1423 12.6669 19.6707 11.9743 18.9781C11.2817 18.2854 10.8101 17.403 10.619 16.4424C10.4279 15.4817 10.526 14.4859 10.9008 13.581C11.2756 12.6761 11.9104 11.9026 12.7248 11.3584C13.5392 10.8143 14.4967 10.5238 15.4762 10.5238C16.7884 10.5279 18.0457 11.051 18.9735 11.9788C19.9014 12.9067 20.4245 14.164 20.4286 15.4762ZM30.9524 8.66667V22.2857C30.9524 24.5843 30.0393 26.7887 28.414 28.414C26.7887 30.0393 24.5843 30.9524 22.2857 30.9524H8.66667C6.36812 30.9524 4.16372 30.0393 2.53841 28.414C0.913093 26.7887 0 24.5843 0 22.2857V8.66667C0 6.36812 0.913093 4.16372 2.53841 2.53841C4.16372 0.913093 6.36812 0 8.66667 0H22.2857C24.5843 0 26.7887 0.913093 28.414 2.53841C30.0393 4.16372 30.9524 6.36812 30.9524 8.66667ZM22.9048 15.4762C22.9048 14.007 22.4691 12.5707 21.6528 11.3491C20.8366 10.1275 19.6764 9.17534 18.319 8.61309C16.9616 8.05084 15.4679 7.90372 14.0269 8.19036C12.5859 8.47699 11.2623 9.18449 10.2234 10.2234C9.18449 11.2623 8.47699 12.5859 8.19036 14.0269C7.90372 15.4679 8.05084 16.9616 8.61309 18.319C9.17534 19.6764 10.1275 20.8366 11.3491 21.6528C12.5707 22.4691 14.007 22.9048 15.4762 22.9048C17.4464 22.9048 19.3359 22.1221 20.729 20.729C22.1221 19.3359 22.9048 17.4464 22.9048 15.4762ZM25.381 7.42857C25.381 7.06126 25.272 6.7022 25.068 6.3968C24.8639 6.09139 24.5739 5.85336 24.2345 5.71279C23.8952 5.57223 23.5217 5.53545 23.1615 5.60711C22.8012 5.67877 22.4703 5.85565 22.2106 6.11537C21.9509 6.3751 21.774 6.70601 21.7024 7.06626C21.6307 7.42651 21.6675 7.79992 21.808 8.13927C21.9486 8.47862 22.1866 8.76866 22.492 8.97273C22.7974 9.1768 23.1565 9.28571 23.5238 9.28571C24.0164 9.28571 24.4887 9.09005 24.837 8.74177C25.1853 8.39349 25.381 7.92112 25.381 7.42857Z" fill="#CDD6F4"/>
</svg>
