<svg width="37" height="37" viewBox="0 0 37 37" fill="none" xmlns="http://www.w3.org/2000/svg">
<path d="M0 0V36.9804H36.9804V0H0ZM20.1253 28.8408C20.1253 32.4398 18.0121 34.0827 14.9335 34.0827C12.152 34.0827 10.5421 32.6471 9.71661 30.9051L12.5483 29.196C13.0937 30.1615 13.589 30.979 14.7856 30.979C15.924 30.979 16.6504 30.5326 16.6504 28.7919V16.9793H20.1253V28.8408ZM28.3455 34.0827C25.1176 34.0827 23.0296 32.5481 22.0139 30.5326L24.8456 28.8989C25.5891 30.1126 26.5625 31.0121 28.2715 31.0121C29.7072 31.0121 30.633 30.2936 30.633 29.2951C30.633 28.1064 29.6913 27.6851 28.0985 26.9838L27.2321 26.6127C24.7227 25.5482 23.0639 24.2024 23.0639 21.3707C23.0639 18.7623 25.0529 16.7812 28.1487 16.7812C30.3609 16.7812 31.9458 17.5485 33.0856 19.5626L30.3781 21.2968C29.7838 20.2323 29.1393 19.8109 28.1408 19.8109C27.1265 19.8109 26.4819 20.4555 26.4819 21.2968C26.4819 22.3375 27.1265 22.7575 28.6202 23.4099L29.4866 23.7811C32.4424 25.0437 34.1012 26.3406 34.1012 29.2449C34.1012 32.3658 31.6407 34.0814 28.3468 34.0814L28.3455 34.0827Z" fill="#CDD6F4"/>
</svg>
