<svg width="32" height="31" viewBox="0 0 32 31" fill="none" xmlns="http://www.w3.org/2000/svg">
<path d="M28.0376 0C28.9498 0 29.8245 0.362338 30.4695 1.0073C31.1145 1.65227 31.4768 2.52703 31.4768 3.43915V27.5132C31.4768 28.4253 31.1145 29.3001 30.4695 29.9451C29.8245 30.59 28.9498 30.9524 28.0376 30.9524H3.96357C3.05145 30.9524 2.17668 30.59 1.53172 29.9451C0.886752 29.3001 0.524414 28.4253 0.524414 27.5132V3.43915C0.524414 2.52703 0.886752 1.65227 1.53172 1.0073C2.17668 0.362338 3.05145 0 3.96357 0H28.0376ZM27.1779 26.6534V17.5397C27.1779 16.0529 26.5872 14.6271 25.5359 13.5758C24.4847 12.5245 23.0588 11.9339 21.572 11.9339C20.1104 11.9339 18.408 12.828 17.5826 14.1693V12.2606H12.785V26.6534H17.5826V18.1759C17.5826 16.8519 18.6488 15.7685 19.9728 15.7685C20.6113 15.7685 21.2236 16.0222 21.6751 16.4736C22.1266 16.9251 22.3802 17.5374 22.3802 18.1759V26.6534H27.1779ZM7.19637 9.56085C7.96255 9.56085 8.69735 9.25648 9.23913 8.71471C9.7809 8.17294 10.0853 7.43814 10.0853 6.67196C10.0853 5.07275 8.79558 3.76587 7.19637 3.76587C6.42563 3.76587 5.68646 4.07205 5.14146 4.61705C4.59646 5.16204 4.29029 5.90122 4.29029 6.67196C4.29029 8.27116 5.59717 9.56085 7.19637 9.56085M9.58658 26.6534V12.2606H4.82336V26.6534H9.58658V26.6534Z" fill="#CDD6F4"/>
</svg>
