<svg width="22" height="20" viewBox="0 0 22 20" fill="none" xmlns="http://www.w3.org/2000/svg">
<path opacity="0.9" d="M0 1.42857C0 1.04969 0.144866 0.686328 0.402728 0.418419C0.660591 0.15051 1.01033 0 1.375 0H20.625C20.9897 0 21.3394 0.15051 21.5973 0.418419C21.8551 0.686328 22 1.04969 22 1.42857C22 1.80745 21.8551 2.17081 21.5973 2.43872C21.3394 2.70663 20.9897 2.85714 20.625 2.85714H1.375C1.01033 2.85714 0.660591 2.70663 0.402728 2.43872C0.144866 2.17081 0 1.80745 0 1.42857ZM0 10C0 9.62112 0.144866 9.25776 0.402728 8.98985C0.660591 8.72194 1.01033 8.57143 1.375 8.57143H20.625C20.9897 8.57143 21.3394 8.72194 21.5973 8.98985C21.8551 9.25776 22 9.62112 22 10C22 10.3789 21.8551 10.7422 21.5973 11.0102C21.3394 11.2781 20.9897 11.4286 20.625 11.4286H1.375C1.01033 11.4286 0.660591 11.2781 0.402728 11.0102C0.144866 10.7422 0 10.3789 0 10ZM1.375 17.1429C1.01033 17.1429 0.660591 17.2934 0.402728 17.5613C0.144866 17.8292 0 18.1925 0 18.5714C0 18.9503 0.144866 19.3137 0.402728 19.5816C0.660591 19.8495 1.01033 20 1.375 20H20.625C20.9897 20 21.3394 19.8495 21.5973 19.5816C21.8551 19.3137 22 18.9503 22 18.5714C22 18.1925 21.8551 17.8292 21.5973 17.5613C21.3394 17.2934 20.9897 17.1429 20.625 17.1429H1.375Z" fill="#CDD6F4"/>
</svg>
