<svg width="37" height="37" viewBox="0 0 37 37" fill="none" xmlns="http://www.w3.org/2000/svg">
<path d="M17.1497 0.00961107L16.5936 0.0591607C11.3818 0.528965 6.49835 3.34229 3.40425 7.66412C1.69471 10.0376 0.583532 12.7888 0.165166 15.6838C0.0183516 16.6895 0 16.9868 0 18.354C0 19.7212 0.0183516 20.0185 0.165166 21.0279C1.16167 27.9189 6.06709 33.7089 12.7178 35.8542C13.9106 36.2378 15.1659 36.4984 16.5936 36.658C17.1497 36.7186 19.5538 36.7186 20.1098 36.658C22.5745 36.3828 24.6611 35.7753 26.722 34.7238C27.0376 34.5623 27.0982 34.5182 27.056 34.4834C27.0266 34.4613 25.6814 32.6574 24.0665 30.4753L21.132 26.5114L17.4543 21.0701C16.2318 19.2498 14.998 17.4373 13.7528 15.6325C13.7381 15.6288 13.7234 18.0457 13.7161 20.9985C13.7051 26.1682 13.7014 26.3756 13.6372 26.4985C13.5739 26.6413 13.4621 26.757 13.3215 26.8252C13.2059 26.8802 13.1068 26.8931 12.5654 26.8931H11.9433L11.7782 26.7885C11.6784 26.7218 11.5965 26.6317 11.5396 26.526L11.4625 26.3646L11.4698 19.1725L11.4809 11.9768L11.591 11.8373C11.6649 11.7477 11.7552 11.673 11.8571 11.6171C12.0039 11.5455 12.0626 11.5382 12.6829 11.5382C13.4151 11.5382 13.5362 11.5675 13.7271 11.7768C13.7822 11.8318 15.7715 14.8323 18.1535 18.4439L25.3951 29.4109L28.3002 33.8117L28.447 33.7163C29.75 32.8684 31.1264 31.6645 32.2183 30.4074C34.5308 27.7617 36.0308 24.5049 36.5383 21.0279C36.6851 20.0185 36.7035 19.7212 36.7035 18.354C36.7035 16.9886 36.6851 16.6895 36.5383 15.682C35.5418 8.79092 30.6364 3.00095 23.9857 0.855626C22.7419 0.46014 21.4611 0.192051 20.1631 0.0554906C19.8199 0.0187871 17.447 -0.0179165 17.1497 0.00961107ZM24.6629 11.1087C24.8354 11.195 24.9749 11.3602 25.0244 11.5308C25.0538 11.6244 25.0611 13.6193 25.0538 18.1136L25.0428 24.5642L23.905 22.8208L22.7653 21.0774V16.3885C22.7653 13.3568 22.78 11.6538 22.802 11.5712C22.8277 11.476 22.8723 11.387 22.9332 11.3094C22.9941 11.2319 23.0699 11.1674 23.1562 11.1198C23.303 11.0445 23.3581 11.0372 23.9197 11.0372C24.4519 11.0372 24.5436 11.0445 24.6629 11.1087Z" fill="#CDD6F4"/>
</svg>
