<svg width="263" height="31" viewBox="0 0 263 31" fill="none" xmlns="http://www.w3.org/2000/svg">
<path d="M119 12C119 6.47715 123.477 2 129 2H253C258.523 2 263 6.47715 263 12V19C263 24.5228 258.523 29 253 29H129C123.477 29 119 24.5228 119 19V12Z" fill="#94E2D5"/>
<path d="M104 12C104 6.47715 108.477 2 114 2H238C243.523 2 248 6.47715 248 12V19C248 24.5228 243.523 29 238 29H114C108.477 29 104 24.5228 104 19V12Z" fill="#F9E2AF"/>
<path d="M45 12C45 6.47715 49.4772 2 55 2H222C227.523 2 232 6.47715 232 12V19C232 24.5228 227.523 29 222 29H55C49.4771 29 45 24.5228 45 19V12Z" fill="#CBA6F7"/>
<path d="M0 12C0 6.47715 4.47715 2 10 2H61C66.5228 2 71 6.47715 71 12V19C71 24.5228 66.5228 29 61 29H10C4.47715 29 0 24.5228 0 19V12Z" fill="#F5C2E7"/>
<path d="M37.6103 18.8687H42.3544L42.0869 21H34.2841V19.0114L38.9836 13.652H34.6765V11.5296H42.2653V13.5093L37.6103 18.8687ZM53.3516 10.0137L54.0115 12.0825C53.6786 12.2133 53.2892 12.3084 52.8433 12.3679C52.3975 12.4273 51.8773 12.4571 51.2828 12.4571C51.8773 12.7127 52.3291 13.0307 52.6382 13.4112C52.9533 13.7858 53.1109 14.2792 53.1109 14.8915C53.1109 15.5039 52.9474 16.0508 52.6204 16.5323C52.2934 17.0079 51.8297 17.3825 51.2293 17.6559C50.6288 17.9294 49.9184 18.0662 49.098 18.0662C48.8959 18.0662 48.7056 18.0572 48.5273 18.0394C48.3489 18.0216 48.1735 17.9948 48.0011 17.9591C47.9001 18.0126 47.8228 18.0899 47.7693 18.191C47.7158 18.2921 47.689 18.3961 47.689 18.5031C47.689 18.6517 47.7485 18.7855 47.8674 18.9044C47.9922 19.0233 48.2806 19.0827 48.7324 19.0827H50.284C51.0212 19.0827 51.6573 19.2016 52.1924 19.4394C52.7334 19.6772 53.1525 20.0012 53.4497 20.4114C53.747 20.8217 53.8956 21.2913 53.8956 21.8204C53.8956 22.7894 53.4705 23.5534 52.6204 24.1122C51.7703 24.671 50.507 24.9504 48.8305 24.9504C47.6177 24.9504 46.6784 24.8256 46.0125 24.5759C45.3527 24.3322 44.8919 23.9814 44.6303 23.5236C44.3747 23.0718 44.2469 22.5338 44.2469 21.9096H46.7438C46.7438 22.1831 46.7973 22.406 46.9043 22.5784C47.0172 22.7567 47.2283 22.8875 47.5374 22.9708C47.8525 23.054 48.3073 23.0956 48.9018 23.0956C49.5023 23.0956 49.96 23.048 50.2751 22.9529C50.5902 22.8578 50.8042 22.727 50.9172 22.5606C51.0361 22.4 51.0955 22.2187 51.0955 22.0166C51.0955 21.7372 50.9855 21.5113 50.7656 21.3389C50.5456 21.1665 50.1978 21.0803 49.7222 21.0803H48.2152C47.1926 21.0803 46.4495 20.893 45.9858 20.5185C45.5221 20.138 45.2902 19.6951 45.2902 19.1898C45.2902 18.839 45.3824 18.5061 45.5667 18.191C45.7569 17.8759 46.0215 17.6114 46.3603 17.3973C45.7539 17.0763 45.32 16.6988 45.0584 16.2648C44.7968 15.8249 44.666 15.2988 44.666 14.6864C44.666 13.973 44.8473 13.3607 45.21 12.8494C45.5726 12.3322 46.072 11.9339 46.7081 11.6545C47.3502 11.3751 48.0814 11.2354 48.9018 11.2354C49.6093 11.2473 50.2246 11.1997 50.7477 11.0927C51.2709 10.9797 51.7405 10.8281 52.1567 10.6379C52.5728 10.4417 52.9711 10.2336 53.3516 10.0137ZM48.9731 13.0634C48.5273 13.0634 48.1735 13.2061 47.912 13.4915C47.6504 13.7709 47.5196 14.1573 47.5196 14.6508C47.5196 15.1739 47.6534 15.5752 47.9209 15.8546C48.1884 16.134 48.5392 16.2737 48.9731 16.2737C49.4428 16.2737 49.7995 16.134 50.0432 15.8546C50.2929 15.5752 50.4178 15.162 50.4178 14.6151C50.4178 14.086 50.2959 13.6966 50.0522 13.4469C49.8084 13.1913 49.4487 13.0634 48.9731 13.0634Z" fill="#11111B"/>
<path d="M81.6205 13.331C82.0604 13.331 82.4409 13.4201 82.7619 13.5985C83.0889 13.7768 83.3802 13.9849 83.6358 14.2227C83.8974 14.4605 84.1471 14.6686 84.3849 14.8469C84.6287 15.0253 84.8843 15.1145 85.1518 15.1145C85.4907 15.1145 85.779 14.9956 86.0168 14.7578C86.2606 14.514 86.5013 14.1662 86.7391 13.7144L88.3175 14.4278C88.0678 14.9807 87.7914 15.4682 87.4882 15.8903C87.1909 16.3124 86.8461 16.6453 86.4538 16.889C86.0673 17.1268 85.6096 17.2457 85.0805 17.2457C84.6524 17.2457 84.2749 17.1566 83.948 16.9782C83.6269 16.7999 83.3356 16.5918 83.074 16.354C82.8125 16.1162 82.5598 15.9081 82.3161 15.7298C82.0723 15.5514 81.8167 15.4622 81.5492 15.4622C81.2043 15.4622 80.9101 15.5871 80.6663 15.8368C80.4285 16.0865 80.1937 16.4253 79.9618 16.8534L78.3835 16.1489C78.6272 15.6495 78.8977 15.1858 79.1949 14.7578C79.4922 14.3297 79.837 13.9849 80.2294 13.7233C80.6217 13.4618 81.0854 13.331 81.6205 13.331ZM91.4049 22.9975L89.2023 21.9898L96.7019 6.42885L98.8867 7.43652L91.4049 22.9975ZM105.88 11.2175C106.706 11.2175 107.372 11.4226 107.877 11.8328C108.383 12.243 108.751 12.8227 108.983 13.5717C109.221 14.3208 109.34 15.2096 109.34 16.2381C109.34 17.213 109.197 18.084 108.912 18.8509C108.627 19.6118 108.213 20.2123 107.672 20.6522C107.131 21.0862 106.474 21.3032 105.702 21.3032C104.78 21.3032 104.031 20.9732 103.454 20.3134V24.6562L100.636 24.9504V11.5296H103.133L103.258 12.5908C103.645 12.0974 104.067 11.7466 104.524 11.5386C104.982 11.3245 105.434 11.2175 105.88 11.2175ZM105.006 13.2953C104.679 13.2953 104.391 13.3934 104.141 13.5896C103.891 13.7858 103.662 14.0533 103.454 14.3922V18.3872C103.651 18.6785 103.856 18.8925 104.07 19.0292C104.29 19.166 104.548 19.2343 104.846 19.2343C105.345 19.2343 105.734 19.0084 106.014 18.5566C106.293 18.0988 106.433 17.3379 106.433 16.2737C106.433 15.489 106.376 14.8826 106.263 14.4546C106.15 14.0206 105.987 13.7204 105.773 13.5539C105.559 13.3815 105.303 13.2953 105.006 13.2953ZM115.432 11.2175C116.407 11.2175 117.237 11.4256 117.92 11.8418C118.604 12.2579 119.127 12.8435 119.49 13.5985C119.853 14.3476 120.034 15.2274 120.034 16.2381C120.034 17.2903 119.85 18.1969 119.481 18.9579C119.118 19.7129 118.595 20.2925 117.912 20.6968C117.228 21.1011 116.402 21.3032 115.432 21.3032C114.469 21.3032 113.643 21.104 112.953 20.7057C112.27 20.3074 111.744 19.7307 111.375 18.9757C111.012 18.2207 110.831 17.3141 110.831 16.2559C110.831 15.2512 111.012 14.3713 111.375 13.6163C111.744 12.8613 112.27 12.2728 112.953 11.8507C113.643 11.4286 114.469 11.2175 115.432 11.2175ZM115.432 13.2953C114.856 13.2953 114.428 13.5331 114.148 14.0087C113.875 14.4784 113.738 15.2274 113.738 16.2559C113.738 17.3022 113.875 18.0602 114.148 18.5299C114.428 18.9995 114.856 19.2343 115.432 19.2343C116.009 19.2343 116.434 18.9995 116.708 18.5299C116.987 18.0602 117.127 17.2963 117.127 16.2381C117.127 15.2155 116.987 14.4694 116.708 13.9998C116.434 13.5301 116.009 13.2953 115.432 13.2953ZM122.114 21V19.1095H123.362V13.4023H122.114V11.5296H125.511L126.028 13.6609C126.367 12.8465 126.798 12.2401 127.321 11.8418C127.851 11.4434 128.496 11.2443 129.257 11.2443C129.578 11.2443 129.863 11.271 130.113 11.3245C130.362 11.3721 130.597 11.4405 130.817 11.5296L129.961 13.8571C129.789 13.8095 129.616 13.7739 129.444 13.7501C129.271 13.7263 129.081 13.7144 128.873 13.7144C128.255 13.7144 127.711 13.9671 127.241 14.4724C126.777 14.9777 126.424 15.6198 126.18 16.3986V19.1095H128.053V21H122.114ZM128.525 15.489V12.7246L128.944 11.5296H130.817L130.291 15.489H128.525ZM141.244 20.4471C140.875 20.6849 140.429 20.887 139.906 21.0535C139.383 21.22 138.794 21.3032 138.14 21.3032C136.904 21.3032 135.985 20.9881 135.385 20.3579C134.784 19.7218 134.484 18.8598 134.484 17.7719V13.4737H132.496V11.5296H134.484V9.47862L137.302 9.13976V11.5296H140.352L140.075 13.4737H137.302V17.7719C137.302 18.2415 137.409 18.5774 137.623 18.7795C137.837 18.9817 138.179 19.0827 138.649 19.0827C138.982 19.0827 139.285 19.0441 139.558 18.9668C139.838 18.8836 140.087 18.7795 140.307 18.6547L141.244 20.4471ZM149.2 11.5296V19.0738H151.608V21H143.698V19.0738H146.382V13.4558H143.787V11.5296H149.2ZM147.497 6.57153C147.984 6.57153 148.382 6.72312 148.692 7.02632C149.001 7.32951 149.155 7.70702 149.155 8.15884C149.155 8.61065 149.001 8.99113 148.692 9.30027C148.382 9.60347 147.984 9.75506 147.497 9.75506C147.003 9.75506 146.599 9.60347 146.284 9.30027C145.975 8.99113 145.82 8.61065 145.82 8.15884C145.82 7.70702 145.975 7.32951 146.284 7.02632C146.599 6.72312 147.003 6.57153 147.497 6.57153ZM160.135 7.47219C160.824 7.47219 161.434 7.52867 161.963 7.64162C162.492 7.74863 162.964 7.89131 163.381 8.06966L162.605 9.90666C162.278 9.78182 161.942 9.69264 161.597 9.63914C161.252 9.57969 160.911 9.54996 160.572 9.54996C160.013 9.54996 159.612 9.65103 159.368 9.85316C159.13 10.0553 159.011 10.3912 159.011 10.8608V12.1271H162.097L161.784 14.08H159.011V21H156.211V14.08H154.222V12.1271H156.211V10.7538C156.211 10.1296 156.36 9.57077 156.657 9.07734C156.954 8.5839 157.394 8.19451 157.977 7.90915C158.559 7.61784 159.279 7.47219 160.135 7.47219ZM168.903 11.2175C169.877 11.2175 170.707 11.4256 171.39 11.8418C172.074 12.2579 172.597 12.8435 172.96 13.5985C173.323 14.3476 173.504 15.2274 173.504 16.2381C173.504 17.2903 173.32 18.1969 172.951 18.9579C172.588 19.7129 172.065 20.2925 171.382 20.6968C170.698 21.1011 169.872 21.3032 168.903 21.3032C167.939 21.3032 167.113 21.104 166.423 20.7057C165.74 20.3074 165.214 19.7307 164.845 18.9757C164.482 18.2207 164.301 17.3141 164.301 16.2559C164.301 15.2512 164.482 14.3713 164.845 13.6163C165.214 12.8613 165.74 12.2728 166.423 11.8507C167.113 11.4286 167.939 11.2175 168.903 11.2175ZM168.903 13.2953C168.326 13.2953 167.898 13.5331 167.618 14.0087C167.345 14.4784 167.208 15.2274 167.208 16.2559C167.208 17.3022 167.345 18.0602 167.618 18.5299C167.898 18.9995 168.326 19.2343 168.903 19.2343C169.479 19.2343 169.904 18.9995 170.178 18.5299C170.457 18.0602 170.597 17.2963 170.597 16.2381C170.597 15.2155 170.457 14.4694 170.178 13.9998C169.904 13.5301 169.479 13.2953 168.903 13.2953ZM180.435 7.76647V18.0216C180.435 18.402 180.542 18.6755 180.756 18.842C180.976 19.0025 181.276 19.0827 181.656 19.0827C181.9 19.0827 182.135 19.056 182.361 19.0025C182.587 18.943 182.798 18.8747 182.994 18.7974L183.672 20.679C183.351 20.8454 182.964 20.9911 182.513 21.1159C182.061 21.2408 181.535 21.3032 180.934 21.3032C179.793 21.3032 178.954 20.9762 178.419 20.3223C177.884 19.6624 177.617 18.7795 177.617 17.6738V9.69264H174.826V7.76647H180.435ZM191.976 11.5296V19.0738H194.384V21H186.474V19.0738H189.158V13.4558H186.563V11.5296H191.976ZM190.273 6.57153C190.76 6.57153 191.158 6.72312 191.468 7.02632C191.777 7.32951 191.931 7.70702 191.931 8.15884C191.931 8.61065 191.777 8.99113 191.468 9.30027C191.158 9.60347 190.76 9.75506 190.273 9.75506C189.779 9.75506 189.375 9.60347 189.06 9.30027C188.751 8.99113 188.596 8.61065 188.596 8.15884C188.596 7.70702 188.751 7.32951 189.06 7.02632C189.375 6.72312 189.779 6.57153 190.273 6.57153ZM200.985 11.2175C201.959 11.2175 202.789 11.4256 203.472 11.8418C204.156 12.2579 204.679 12.8435 205.042 13.5985C205.405 14.3476 205.586 15.2274 205.586 16.2381C205.586 17.2903 205.402 18.1969 205.033 18.9579C204.67 19.7129 204.147 20.2925 203.464 20.6968C202.78 21.1011 201.954 21.3032 200.985 21.3032C200.021 21.3032 199.195 21.104 198.505 20.7057C197.822 20.3074 197.296 19.7307 196.927 18.9757C196.564 18.2207 196.383 17.3141 196.383 16.2559C196.383 15.2512 196.564 14.3713 196.927 13.6163C197.296 12.8613 197.822 12.2728 198.505 11.8507C199.195 11.4286 200.021 11.2175 200.985 11.2175ZM200.985 13.2953C200.408 13.2953 199.98 13.5331 199.7 14.0087C199.427 14.4784 199.29 15.2274 199.29 16.2559C199.29 17.3022 199.427 18.0602 199.7 18.5299C199.98 18.9995 200.408 19.2343 200.985 19.2343C201.561 19.2343 201.986 18.9995 202.26 18.5299C202.539 18.0602 202.679 17.2963 202.679 16.2381C202.679 15.2155 202.539 14.4694 202.26 13.9998C201.986 13.5301 201.561 13.2953 200.985 13.2953ZM209.039 22.9975L206.836 21.9898L214.336 6.42885L216.521 7.43652L209.039 22.9975Z" fill="#11111B"/>
<path d="M18.7375 13.1149C19.1983 13.5037 19.9419 13.909 20.5872 14.1619C20.0321 13.759 19.4796 13.3049 18.9282 12.7106C19.3872 11.7318 19.9353 10.38 20.5003 9C21.4215 11.3538 23.1385 14.8961 25.4387 19.0989C24.8138 18.7558 24.2476 18.5604 23.663 18.4095C23.8568 18.52 24.3147 18.7699 24.6086 18.9708C25.0727 19.2881 25.5023 19.6352 25.9063 19.9674C26.2669 20.6304 26.6318 21.3071 27.0008 21.9958C25.166 20.9334 23.3831 20.0729 21.9223 19.8071C22.4006 17.1543 20.5288 15.5893 19.4654 17.2778C19.0559 17.9279 18.9452 18.999 19.1394 19.795C17.2925 20.1506 15.4855 21.1461 14 21.9958C15.7303 18.8604 17.4797 15.6821 18.7375 13.1149Z" fill="#11111B"/>
</svg>
