<svg width="32" height="35" viewBox="0 0 32 35" fill="none" xmlns="http://www.w3.org/2000/svg">
<path d="M16 0C24.8368 0 32 7.7121 32 17.226C32 26.74 24.8368 34.4521 16 34.4521C13.1725 34.457 10.3947 33.6514 7.95202 32.118L0.0064225 34.4521L2.16962 25.8942C0.744171 23.2636 -0.0047014 20.2716 2.22084e-05 17.226C2.22084e-05 7.7121 7.16322 0 16 0ZM10.5472 9.1298L10.2272 9.14358C10.0201 9.15717 9.81758 9.21576 9.63202 9.31584C9.45845 9.42166 9.30001 9.55395 9.16162 9.7086C8.96962 9.90325 8.86082 10.0721 8.74402 10.2357C8.15221 11.0641 7.83357 12.0812 7.83842 13.1262C7.84162 13.9703 8.04642 14.792 8.36642 15.5603C9.02082 17.1141 10.0976 18.7592 11.5184 20.2837C11.8608 20.6506 12.1968 21.0192 12.5584 21.362C14.3238 23.0355 16.4276 24.2423 18.7024 24.8865L19.6112 25.0363C19.9072 25.0536 20.2032 25.0294 20.5008 25.0139C20.9668 24.988 21.4218 24.8522 21.8336 24.616C22.0431 24.4998 22.2476 24.3734 22.4464 24.237C22.4464 24.237 22.5152 24.1888 22.6464 24.082C22.8624 23.9097 22.9952 23.7874 23.1744 23.5859C23.3072 23.4378 23.4224 23.2638 23.5104 23.0657C23.6352 22.7849 23.76 22.2492 23.8112 21.803C23.8496 21.4619 23.8384 21.2759 23.8336 21.1605C23.8272 20.9762 23.6848 20.7849 23.5296 20.704L22.5984 20.2544C22.5984 20.2544 21.2064 19.6015 20.3552 19.1846C20.2661 19.1428 20.1707 19.1188 20.0736 19.114C19.9641 19.1019 19.8535 19.1152 19.7492 19.1529C19.6449 19.1906 19.5493 19.252 19.4688 19.3328C19.4608 19.3293 19.3536 19.4275 18.1968 20.9365C18.1304 21.0326 18.039 21.1052 17.9341 21.1451C17.8292 21.1849 17.7157 21.1903 17.608 21.1605C17.5038 21.1304 17.4017 21.0924 17.3024 21.0468C17.104 20.9572 17.0352 20.9228 16.8992 20.8607C15.9809 20.4293 15.1307 19.8464 14.3792 19.133C14.1776 18.9435 13.9904 18.7368 13.7984 18.5369C13.169 17.8879 12.6204 17.1537 12.1664 16.3527L12.072 16.189C12.0042 16.0791 11.9494 15.9605 11.9088 15.8359C11.848 15.5827 12.0064 15.3794 12.0064 15.3794C12.0064 15.3794 12.3952 14.9212 12.576 14.6731C12.752 14.432 12.9008 14.1977 12.9968 14.0306C13.1856 13.7033 13.2448 13.3674 13.1456 13.1073C12.6976 11.929 12.2336 10.7559 11.7568 9.59146C11.6624 9.36063 11.3824 9.19526 11.128 9.16253C11.0416 9.1522 10.9552 9.14186 10.8688 9.13497C10.6539 9.12348 10.4386 9.12578 10.224 9.14186L10.5456 9.12808L10.5472 9.1298Z" fill="#11111B"/>
</svg>
