<svg width="49" height="27" viewBox="0 0 49 27" fill="none" xmlns="http://www.w3.org/2000/svg">
<path d="M38.3953 9.91848V11.9728H36.341V9.91848H38.3953ZM40.4483 9.91848V14.0272H39.4212V11.9728H38.394V9.91848H40.4483ZM41.4742 9.91848V11.9728H40.447V9.91848H41.4742ZM43.5272 11.9728V14.0272H42.5V11.9728H43.5272ZM44.5543 9.91848V11.9694H43.5272V9.91848H44.5543ZM46.6074 9.91848V11.9728H44.553V9.91848H46.6074ZM47.6332 9.91848V14.0272H46.606V9.91848H47.6332ZM38.3953 15.9728V18.0272H37.3681V15.9728H38.3953ZM39.4212 13.9185V15.9728H38.394V13.9185H39.4212ZM43.5272 13.9185V15.9694H44.5543V18.0272H43.5272V15.9728H42.5V13.9185H43.5272ZM46.6074 15.9728V18.0272H44.553V15.9728H46.6074ZM47.6332 13.9185V18.0272H46.606V13.9185H47.6332ZM38.3953 17.9185V19.9728H36.341V17.9185H38.3953ZM40.4483 17.9185V19.9728H38.394V17.9185H40.4483ZM41.4742 17.9185V19.9728H40.447V17.9185H41.4742ZM44.5543 19.9728V22.0272H43.5272V19.9728H44.5543ZM46.6074 19.9728V22.0272H44.553V19.9728H46.6074ZM47.6332 17.9185V19.9728H46.606V17.9185H47.6332Z" fill="#CDD6F4"/>
<path d="M1.22129 20.4911C1.70451 21.8453 2.88592 22.3105 3.41622 22.3739C3.96003 22.5306 4.54289 22.9021 2.52383 23.1351L3.54575 23.8793H14.8716L19.317 19.0668L22.73 13.5082L21.9211 12.5375C21.8563 11.5668 20.8856 11.8426 20.0288 11.2109C19.3434 10.7055 19.7432 10.1806 20.0288 9.98133C19.8938 10.0353 19.5655 10.2208 19.3325 10.5314C19.0995 10.842 19.106 11.2756 19.3325 11.6639C19.8179 12.311 20.9348 13.6222 20.0288 14.3791C18.4298 15.3942 18.5163 15.4878 18.2123 14.9172C18.1136 14.3593 18.3737 13.9155 18.303 13.0375C18.2465 12.335 16.7957 11.9482 16.0774 11.8426C16.4868 12.0518 17.1437 12.8372 16.496 14.3056C15.6865 16.141 16.1479 16.2614 16.5772 17.2536C16.9207 18.0473 16.4376 18.7931 16.1531 19.0668C15.5507 19.4895 14.4512 20.0103 14.8716 18.7119C15.292 17.4134 14.7659 16.774 14.4503 16.6166C12.8674 15.3234 12.3233 15.9796 11.8166 15.0286C11.3099 14.0777 11.706 12.5846 11.9674 11.957C10.5399 13.3036 10.039 14.6124 9.96694 15.0985C9.61611 17.4221 11.1297 17.6534 11.3523 18.8167C11.4316 19.2312 10.435 21.6336 8.29181 19.4097C6.73697 17.7963 7.42568 16.3305 7.99466 14.3791C8.0649 14.1381 8.09419 13.4103 7.64936 12.4264C7.20454 11.4425 5.52333 10.4866 4.73834 10.1316C5.46243 10.6208 6.87753 11.9098 6.74518 13.1524C6.61284 14.395 5.71825 15.4496 5.28749 15.8216C4.68426 16.3668 3.49138 17.7065 3.54575 18.7031C3.60011 19.6998 5.08414 20.2235 5.81937 20.3608C3.27629 20.4339 3.10163 19.7334 2.79761 19.1628C2.36691 18.3545 3.53383 16.817 3.12847 16.0563C2.52043 14.9152 0.789919 15.0843 0 15.4035C0.88192 15.3812 2.48838 15.7869 1.85886 17.5874C1.22934 19.388 1.09864 19.7018 1.22129 20.4911Z" fill="#A27DB6"/>
<path d="M12.8864 18.8482C14.0611 23.2892 19.2315 18.6417 17.914 16.1693C18.6621 16.4528 20.2812 16.6379 20.773 15.1106L20.1906 17.9904C17.656 20.676 11.2731 25.7301 6.01831 24.4617C8.8334 23.9117 4.62701 23.2645 3.91515 21.4987C5.27414 23.3293 10.7979 23.5018 6.65199 21.4987C11.2052 22.5888 12.7055 20.1859 12.8864 18.8482Z" fill="#B395D2"/>
<path fill-rule="evenodd" clip-rule="evenodd" d="M25.9078 8.13113C25.3407 8.43503 24.3774 8.67054 23.7014 8.67054C23.1548 8.67054 23.1212 8.68799 22.8173 9.13117C22.261 9.94219 21.8588 10.8529 21.178 12.8432C20.4735 14.9026 19.8347 16.3522 19.1887 17.357C17.4335 20.0868 15.0033 21.9633 12.0044 22.904C9.79638 23.5967 5.24423 23.6024 3.06912 22.9153C2.61012 22.7704 2.00849 22.6207 1.73212 22.5829C1.27485 22.5201 1.22966 22.534 1.22966 22.737C1.22966 23.0695 1.95127 23.627 3.26572 24.31C5.67039 25.5594 7.92409 26.2197 10.5841 26.4544C14.2394 26.7768 17.5008 26.1321 20.8755 24.4198C24.5097 22.5759 27.4902 20.0282 29.4984 17.0488C30.3937 15.7205 31.685 13.0047 31.685 12.45C31.685 12.4037 31.4776 12.274 31.2244 12.162C30.5745 11.8744 30.1087 11.295 29.8474 10.4493C29.7254 10.0545 29.6257 9.66354 29.6257 9.58041C29.6257 9.49728 29.602 9.42922 29.5731 9.42922C29.544 9.42922 29.1173 9.65173 28.6247 9.92377C27.6413 10.4668 27.3103 10.7926 27.1177 11.4072C27.0475 11.6308 26.9614 11.8121 26.9262 11.8103C26.8088 11.8041 26.1659 10.8847 25.998 10.4827C25.6832 9.72954 25.8289 8.96708 26.4216 8.26411C26.6818 7.95566 26.6937 7.91187 26.5178 7.91187C26.4073 7.91187 26.1328 8.0105 25.9078 8.13113ZM23.3396 14.9045C23.0686 16.0967 22.5732 17.2167 21.6114 18.6329C20.7795 19.8579 18.9501 21.3466 18.1433 21.7294C18.0285 21.7515 18.2813 21.6639 18.1433 21.7294L17.4328 22.0078C17.4328 22.0078 18.2192 21.191 18.5842 20.8441C19.9826 19.515 21.4826 17.309 22.4219 15.2001C22.7073 14.5596 23.2656 13.5173 23.3752 13.4393C23.3752 13.4393 23.5021 14.4168 23.3396 14.9045Z" fill="#CDD6F4"/>
<path fill-rule="evenodd" clip-rule="evenodd" d="M32.8646 0.0423563C32.3029 0.158 32.086 0.304532 31.4516 0.996659C30.6871 1.83066 29.9051 3.46939 29.5088 5.0677C29.2985 5.91622 29.1621 6.27855 29.058 6.26532C28.9758 6.25503 28.616 6.12204 28.2583 5.96987C27.7652 5.76005 27.4185 5.69263 26.8235 5.69068C25.8401 5.68743 25.1428 5.94029 24.2923 6.60846C23.5453 7.19524 22.6574 7.62443 22.1073 7.66453L21.7133 7.69315L21.9881 7.98036C22.3327 8.3404 22.7072 8.43144 23.8697 8.43773C24.6866 8.44207 24.8765 8.40294 25.5347 8.09503C26.2297 7.76977 27.1203 7.624 27.1203 7.83545C27.1203 7.8839 26.9696 8.06685 26.7852 8.24189C25.8867 9.0955 25.8019 10.1156 26.5482 11.0941L26.8282 11.4612L26.9869 11.1487C27.2594 10.6122 27.7985 10.1305 28.5038 9.79337C28.8773 9.61487 29.2609 9.34977 29.3562 9.20421C29.4516 9.05865 29.5646 8.93954 29.6071 8.93954C29.6497 8.93954 29.7659 9.31758 29.8654 9.7795C30.1324 11.0195 30.4031 11.492 31.0635 11.8708C31.5363 12.142 31.734 12.1892 32.4039 12.19C32.8362 12.1906 33.1897 12.1498 33.1897 12.0994C33.1897 12.049 33.0975 11.9244 32.9847 11.8223C32.8532 11.7033 32.7533 11.4153 32.7061 11.0197C32.4689 9.02852 32.0266 8.17989 30.8017 7.36562L30.0237 6.84831L30.1013 5.91601C30.2716 3.86921 31.1694 2.21455 32.6392 1.2377C33.243 0.836472 33.6567 0.827259 34.0088 1.20714C34.2421 1.45891 34.3094 1.47961 34.5455 1.37209C34.694 1.30446 34.8154 1.19684 34.8154 1.133C34.8154 0.94572 34.5291 0.445755 34.3117 0.253485C34.0672 0.0370462 33.3781 -0.0634245 32.8646 0.0423563Z" fill="#CDD6F4"/>
</svg>
